<svg version="1.1" xmlns="http://www.w3.org/2000/svg" xmlns:xlink="http://www.w3.org/1999/xlink" width="353.111328125" height="360"><defs/><g><g transform="translate(-190,-158) scale(1,1)"><rect fill="#C0C0C0" stroke="none" x="267" y="175" width="213.87060546875" height="70" opacity="0.2"/></g><g transform="translate(-190,-158) scale(1,1)"><rect fill="#ffffff" stroke="none" x="260" y="168" width="213.87060546875" height="70"/></g><g transform="translate(-190,-158) scale(1,1)"><path fill="none" stroke="#000000" d="M 260 168 L 473.87060546875 168 L 473.87060546875 238 L 260 238 L 260 168 Z Z" stroke-miterlimit="10"/></g><g transform="translate(-190,-158) scale(1,1)"><path fill="none" stroke="#000000" d="M 260 193 L 473.87060546875 193" stroke-miterlimit="10"/></g><g transform="translate(-190,-158) scale(1,1)"><path fill="none" stroke="#000000" d="M 260 216 L 473.87060546875 216" stroke-miterlimit="10"/></g><g transform="translate(-190,-158) scale(1,1)"><g><path fill="none" stroke="none"/><text fill="#000000" stroke="none" font-family="Arial" font-size="13px" font-style="normal" font-weight="bold" text-decoration="none" x="350.67578125" y="187.5">Menu</text></g></g><g transform="translate(-190,-158) scale(1,1)"><g><path fill="none" stroke="none"/><text fill="#000000" stroke="none" font-family="Arial" font-size="13px" font-style="normal" font-weight="normal" text-decoration="none" x="265" y="210.5">-nombreJugador: TextInputEditText</text></g></g><g transform="translate(-190,-158) scale(1,1)"><g><path fill="none" stroke="none"/><text fill="#000000" stroke="none" font-family="Arial" font-size="13px" font-style="normal" font-weight="normal" text-decoration="none" x="265" y="233.5">+playClick()</text></g></g><g transform="translate(-190,-158) scale(1,1)"><rect fill="#C0C0C0" stroke="none" x="207" y="415" width="333.111328125" height="100" opacity="0.2"/></g><g transform="translate(-190,-158) scale(1,1)"><rect fill="#ffffff" stroke="none" x="200" y="408" width="333.111328125" height="100"/></g><g transform="translate(-190,-158) scale(1,1)"><path fill="none" stroke="#000000" d="M 200 408 L 533.111328125 408 L 533.111328125 508 L 200 508 L 200 408 Z Z" stroke-miterlimit="10"/></g><g transform="translate(-190,-158) scale(1,1)"><path fill="none" stroke="#000000" d="M 200 433 L 533.111328125 433" stroke-miterlimit="10"/></g><g transform="translate(-190,-158) scale(1,1)"><path fill="none" stroke="#000000" d="M 200 456 L 533.111328125 456" stroke-miterlimit="10"/></g><g transform="translate(-190,-158) scale(1,1)"><g><path fill="none" stroke="none"/><text fill="#000000" stroke="none" font-family="Arial" font-size="13px" font-style="normal" font-weight="bold" text-decoration="none" x="348.845703125" y="427.5">Juego</text></g></g><g transform="translate(-190,-158) scale(1,1)"><g><path fill="none" stroke="none"/><text fill="#000000" stroke="none" font-family="Arial" font-size="13px" font-style="normal" font-weight="normal" text-decoration="none" x="205" y="450.5">-tablero: intArray</text></g></g><g transform="translate(-190,-158) scale(1,1)"><g><path fill="none" stroke="none"/><text fill="#000000" stroke="none" font-family="Arial" font-size="13px" font-style="normal" font-weight="normal" text-decoration="none" x="205" y="473.5">-inicializarTablero()</text></g></g><g transform="translate(-190,-158) scale(1,1)"><g><path fill="none" stroke="none"/><text fill="#000000" stroke="none" font-family="Arial" font-size="13px" font-style="normal" font-weight="normal" text-decoration="none" x="205" y="488.5">-ganador(int maquina, int jugador): int</text></g></g><g transform="translate(-190,-158) scale(1,1)"><g><path fill="none" stroke="none"/><text fill="#000000" stroke="none" font-family="Arial" font-size="13px" font-style="normal" font-weight="normal" text-decoration="none" x="205" y="503.5">+resultado(int eleccionJugador, int eleccionMaquina): int</text></g></g><g transform="translate(-190,-158) scale(1,1)"><rect fill="#C0C0C0" stroke="none" x="291" y="287" width="165.2158203125" height="85" opacity="0.2"/></g><g transform="translate(-190,-158) scale(1,1)"><rect fill="#ffffff" stroke="none" x="284" y="280" width="165.2158203125" height="85"/></g><g transform="translate(-190,-158) scale(1,1)"><path fill="none" stroke="#000000" d="M 284 280 L 449.2158203125 280 L 449.2158203125 365 L 284 365 L 284 280 Z Z" stroke-miterlimit="10"/></g><g transform="translate(-190,-158) scale(1,1)"><path fill="none" stroke="#000000" d="M 284 305 L 449.2158203125 305" stroke-miterlimit="10"/></g><g transform="translate(-190,-158) scale(1,1)"><path fill="none" stroke="#000000" d="M 284 343 L 449.2158203125 343" stroke-miterlimit="10"/></g><g transform="translate(-190,-158) scale(1,1)"><g><path fill="none" stroke="none"/><text fill="#000000" stroke="none" font-family="Arial" font-size="13px" font-style="normal" font-weight="bold" text-decoration="none" x="315.30615234375" y="299.5">ActividadPrincipal</text></g></g><g transform="translate(-190,-158) scale(1,1)"><g><path fill="none" stroke="none"/><text fill="#000000" stroke="none" font-family="Arial" font-size="13px" font-style="normal" font-weight="normal" text-decoration="none" x="289" y="322.5">-DatoJugador: ImageView</text></g></g><g transform="translate(-190,-158) scale(1,1)"><g><path fill="none" stroke="none"/><text fill="#000000" stroke="none" font-family="Arial" font-size="13px" font-style="normal" font-weight="normal" text-decoration="none" x="289" y="337.5">-DatoMaquina: ImageView</text></g></g><g transform="translate(-190,-158) scale(1,1)"><g><path fill="none" stroke="none"/><text fill="#000000" stroke="none" font-family="Arial" font-size="13px" font-style="normal" font-weight="normal" text-decoration="none" x="289" y="360.5">+cambiaImagen()</text></g></g><g transform="translate(-190,-158) scale(1,1)"><path fill="none" stroke="#000000" d="M 366 407 L 366 366" stroke-miterlimit="10"/></g><g transform="translate(-190,-158) scale(1,1)"><path fill="#000000" stroke="none" d="M 370.209517756016 376.16267485762415 L 366 366 L 361.790482243984 376.16267485762415 L 366 388"/></g><g transform="translate(-190,-158) scale(1,1)"><path fill="none" stroke="#000000" d="M 370.209517756016 376.16267485762415 L 366 366 L 361.790482243984 376.16267485762415 L 366 388 L 370.209517756016 376.16267485762415" stroke-miterlimit="10"/></g><g transform="translate(-190,-158) scale(1,1)"><path fill="none" stroke="#000000" d="M 366 279 L 366 239" stroke-miterlimit="10"/></g><g transform="translate(-190,-158) scale(1,1)"><path fill="#FFFFFF" stroke="none" d="M 370.209517756016 249.16267485762415 L 366 239 L 361.790482243984 249.16267485762415 L 366 261"/></g><g transform="translate(-190,-158) scale(1,1)"><path fill="none" stroke="#000000" d="M 370.209517756016 249.16267485762415 L 366 239 L 361.790482243984 249.16267485762415 L 366 261 L 370.209517756016 249.16267485762415" stroke-miterlimit="10"/></g></g></svg>